# xmcd CD database file
#
# Track frame offsets:
#	150
#	7205
#	20080
#	36088
#	51154
#	68722
#	83261
#	107368
#
# Disc length: 1709 seconds
#
# Revision: 0
# Processed by: cddbd v1.5PL3 Copyright (c) Steve Scherf et al.
# Submitted via: CDex 1.51
#
DISCID=5906ab08
DTITLE=H. - Sports Test
DYEAR=2000
DGENRE=Rock
TTITLE0=ヤネウラッキー
TTITLE1=ハイジャン
TTITLE2=ダルま
TTITLE3=ハッシュブッヒェ
TTITLE4=若菜
TTITLE5=レゴボディ
TTITLE6=世捨て人
TTITLE7=あれはどうなった
EXTD=YEAR: 2000
EXTT0=
EXTT1=
EXTT2=
EXTT3=
EXTT4=
EXTT5=
EXTT6=
EXTT7=
PLAYORDER=
